<?xml version="1.0" standalone="no"?>
 <!DOCTYPE svg PUBLIC "-//W3C//DTD SVG 1.1//EN" 
 "http://www.w3.org/Graphics/SVG/1.1/DTD/svg11.dtd"> 
<svg
  xmlns:svg="http://www.w3.org/2000/svg"
  xmlns="http://www.w3.org/2000/svg"
  xmlns:xlink="http://www.w3.org/1999/xlink"
  version="1.1"
  width="297.0022mm" height="210.0072mm" viewBox="0.0000 0.0000 297.0022 210.0072">
<title>SVG Image created as minor-B_Cu.svg date 2026/02/06 22:32:24 </title>
  <desc>Image generated by PCBNEW </desc>
<g style="fill:#000000; fill-opacity:1.0000;stroke:#000000; stroke-opacity:1.0000;
stroke-linecap:round; stroke-linejoin:round;"
 transform="translate(0 0) scale(1 1)">
</g>
<g style="fill:#000000; fill-opacity:1.0000; 
stroke:#000000; stroke-width:0.0212; stroke-opacity:1; 
stroke-linecap:round; stroke-linejoin:round;">
<rect x="111.822200" y="62.000000" width="91.415000" height="66.966486" rx="0.000000" />
</g>
<g style="fill:none; 
stroke:#FFFFFF; stroke-width:1.8000; stroke-opacity:1; 
stroke-linecap:round; stroke-linejoin:round;">
<path d="M147.6321 112.2500
L146.8321 112.2500
" />
<path d="M147.6321 104.6300
L146.8321 104.6300
" />
<path d="M147.6321 102.0900
L146.8321 102.0900
" />
<path d="M147.6321 94.4700
L146.8321 94.4700
" />
<path d="M172.4022 104.6300
L171.6022 104.6300
" />
<path d="M172.4022 107.1700
L171.6022 107.1700
" />
<path d="M172.4022 102.0900
L171.6022 102.0900
" />
<path d="M147.6321 107.1700
L146.8321 107.1700
" />
<path d="M147.6321 91.9300
L146.8321 91.9300
" />
<path d="M147.6321 89.3900
L146.8321 89.3900
" />
<path d="M147.6321 86.8500
L146.8321 86.8500
" />
<path d="M147.6321 79.2300
L146.8321 79.2300
" />
<path d="M147.6321 76.6900
L146.8321 76.6900
" />
<path d="M172.4022 94.4700
L171.6022 94.4700
" />
<path d="M172.4022 97.0100
L171.6022 97.0100
" />
<path d="M172.4022 99.5500
L171.6022 99.5500
" />
<path d="M172.4022 89.3900
L171.6022 89.3900
" />
<path d="M172.4022 91.9300
L171.6022 91.9300
" />
<path d="M172.4022 84.3100
L171.6022 84.3100
" />
<path d="M172.4022 86.8500
L171.6022 86.8500
" />
<path d="M172.4022 76.6900
L171.6022 76.6900
" />
<path d="M147.6321 109.7100
L146.8321 109.7100
" />
<path d="M172.4022 109.7100
L171.6022 109.7100
" />
<path d="M147.6321 84.3100
L146.8321 84.3100
" />
<path d="M147.6321 99.5500
L146.8321 99.5500
" />
<path d="M147.6321 81.7700
L146.8321 81.7700
" />
<path d="M147.6321 97.0100
L146.8321 97.0100
" />
<path d="M172.4022 112.2500
L171.6022 112.2500
" />
<path d="M172.4022 81.7700
L171.6022 81.7700
" />
<path d="M172.4022 79.2300
L171.6022 79.2300
" />
<path d="M123.8321 111.2300
L124.6321 111.2300
" />
<path d="M123.8321 108.6900
L124.6321 108.6900
" />
<path d="M123.8321 106.1500
L124.6321 106.1500
" />
<path d="M123.8321 103.6100
L124.6321 103.6100
" />
<path d="M123.8321 101.0700
L124.6321 101.0700
" />
<path d="M123.8321 98.5300
L124.6321 98.5300
" />
<path d="M123.8321 95.9900
L124.6321 95.9900
" />
<path d="M123.8321 93.4500
L124.6321 93.4500
" />
<path d="M123.8321 90.9100
L124.6321 90.9100
" />
<path d="M123.8321 88.3700
L124.6321 88.3700
" />
<path d="M123.8321 85.8300
L124.6321 85.8300
" />
<path d="M123.8321 83.2900
L124.6321 83.2900
" />
<path d="M123.8321 80.7500
L124.6321 80.7500
" />
<path d="M123.8321 78.2100
L124.6321 78.2100
" />
<path style="fill:#FFFFFF; fill-opacity:1.0000; stroke:none;fill-rule:evenodd;"
d="M 132.4822,111.7600
132.5855,111.7394
132.6731,111.6809
132.7316,111.5933
132.7522,111.4900
132.7522,109.4300
132.7316,109.3267
132.6731,109.2391
132.5855,109.1806
132.4822,109.1600
131.2222,109.1600
131.1189,109.1806
131.0313,109.2391
130.9728,109.3267
130.9522,109.4300
130.9522,111.4900
130.9728,111.5933
131.0313,111.6809
131.1189,111.7394
131.2222,111.7600
Z" /> 
<path style="fill:#FFFFFF; fill-opacity:1.0000; stroke:none;fill-rule:evenodd;"
d="M 132.4822,101.6000
132.5855,101.5794
132.6731,101.5209
132.7316,101.4333
132.7522,101.3300
132.7522,99.2700
132.7316,99.1667
132.6731,99.0791
132.5855,99.0206
132.4822,99.0000
131.2222,99.0000
131.1189,99.0206
131.0313,99.0791
130.9728,99.1667
130.9522,99.2700
130.9522,101.3300
130.9728,101.4333
131.0313,101.5209
131.1189,101.5794
131.2222,101.6000
Z" /> 
</g>
<g style="fill:none; 
stroke:#FFFFFF; stroke-width:1.8000; stroke-opacity:1; 
stroke-linecap:round; stroke-linejoin:round;">
<path d="M139.9222 89.8700
L139.1222 89.8700
" />
<path d="M132.3022 89.8700
L131.5022 89.8700
" />
</g>
<g style="fill:none; 
stroke:#FFFFFF; stroke-width:0.5000; stroke-opacity:1; 
stroke-linecap:round; stroke-linejoin:round;">
<path d="M147.2321 112.2500
L131.7772 112.2500
" />
<path d="M131.8522 110.4600
L131.8522 112.1750
" />
<path d="M131.8522 112.1750
L131.7772 112.2500
" />
<path d="M124.2321 90.9100
L130.8622 90.9100
" />
<path d="M130.8622 90.9100
L131.9022 89.8700
" />
<path d="M132.4022 106.2000
L133.3722 107.1700
" />
<path d="M124.2321 106.1500
L124.2821 106.2000
" />
<path d="M133.3722 107.1700
L147.2321 107.1700
" />
<path d="M124.2821 106.2000
L132.4022 106.2000
" />
<path d="M147.2321 76.6900
L140.4122 76.6900
" />
<path d="M123.2122 83.2900
L118.9022 87.6000
" />
<path d="M140.4122 76.6900
L133.8122 83.2900
" />
<path d="M118.9022 96.2500
L121.1822 98.5300
" />
<path d="M133.8122 83.2900
L124.2321 83.2900
" />
<path d="M118.9022 87.6000
L118.9022 96.2500
" />
<path d="M124.2321 83.2900
L123.2122 83.2900
" />
<path d="M121.1822 98.5300
L124.2321 98.5300
" />
<path d="M120.4522 90.7000
L120.4522 94.3500
" />
<path d="M122.7822 88.3700
L120.4522 90.7000
" />
<path d="M135.6322 89.8200
L132.8622 87.0500
" />
<path d="M122.0922 95.9900
L124.2321 95.9900
" />
<path d="M147.2321 91.9300
L145.4222 91.9300
" />
<path d="M135.7322 94.2800
L135.6322 94.1800
" />
<path d="M125.5521 87.0500
L124.2321 88.3700
" />
<path d="M132.8622 87.0500
L125.5521 87.0500
" />
<path d="M135.6322 94.1800
L135.6322 89.8200
" />
<path d="M120.4522 94.3500
L122.0922 95.9900
" />
<path d="M145.4222 91.9300
L143.0722 94.2800
" />
<path d="M124.2321 88.3700
L122.7822 88.3700
" />
<path d="M143.0722 94.2800
L135.7322 94.2800
" />
<path d="M136.3322 85.8300
L124.2321 85.8300
" />
<path d="M137.3522 86.8500
L136.3322 85.8300
" />
<path d="M147.2321 86.8500
L137.3522 86.8500
" />
<path d="M147.2321 109.7100
L136.8372 109.7100
" />
<path d="M136.8372 109.7100
L135.8172 108.6900
" />
<path d="M135.8172 108.6900
L124.2321 108.6900
" />
<path d="M134.6422 103.6100
L124.2321 103.6100
" />
<path d="M147.2321 102.0900
L136.1622 102.0900
" />
<path d="M136.1622 102.0900
L134.6422 103.6100
" />
<path d="M120.2022 102.8500
L121.9822 101.0700
" />
<path d="M151.1522 114.7000
L150.4522 115.4000
" />
<path d="M150.4522 115.4000
L123.9522 115.4000
" />
<path d="M149.1322 104.6300
L151.1522 106.6500
" />
<path d="M151.1522 106.6500
L151.1522 114.7000
" />
<path d="M120.2022 111.6500
L120.2022 102.8500
" />
<path d="M121.9822 101.0700
L124.2321 101.0700
" />
<path d="M123.9522 115.4000
L120.2022 111.6500
" />
<path d="M147.2321 104.6300
L149.1322 104.6300
" />
<path d="M131.7772 112.2500
L125.7022 112.2500
" />
<path d="M125.7022 112.2500
L125.2521 112.2500
" />
<path d="M125.2521 112.2500
L124.2321 111.2300
" />
<path d="M142.8822 89.8700
L143.7022 89.0500
" />
<path d="M149.9122 89.3900
L147.2321 89.3900
" />
<path d="M150.8022 76.2500
L150.8022 88.5000
" />
<path d="M135.5022 74.4000
L148.9522 74.4000
" />
<path d="M148.9522 74.4000
L150.8022 76.2500
" />
<path d="M139.5222 89.8700
L142.8822 89.8700
" />
<path d="M124.2321 80.7500
L129.1522 80.7500
" />
<path d="M129.1522 80.7500
L135.5022 74.4000
" />
<path d="M150.8022 88.5000
L149.9122 89.3900
" />
<path d="M143.7022 89.0500
L146.5807 89.0500
" />
<path d="M146.5807 89.0500
L146.7364 88.8943
" />
<path d="M127.4572 94.3300
L126.5772 93.4500
" />
<path d="M131.8522 94.9800
L131.2022 94.3300
" />
<path d="M131.2022 94.3300
L127.4572 94.3300
" />
<path d="M126.5772 93.4500
L124.2321 93.4500
" />
<path d="M131.8522 100.3000
L131.8522 94.9800
" />
<path style="fill:#FFFFFF; fill-opacity:1.0000; stroke:none;fill-rule:evenodd;"
d="M 122.2774,101.8402
122.2567,101.8568
120.9890,103.1245
120.9555,103.1859
120.9527,103.2122
120.9527,111.2878
120.9724,111.3548
120.9890,111.3755
124.2267,114.6132
124.2881,114.6467
124.3144,114.6495
150.0900,114.6495
150.1570,114.6298
150.1777,114.6132
150.3654,114.4255
150.3989,114.3641
150.4017,114.3378
150.4017,107.0122
150.3820,106.9452
150.3654,106.9245
149.6647,106.2239
148.9220,105.4812
148.8607,105.4477
148.7910,105.4527
148.7351,105.4946
148.7340,105.4960
148.7003,105.5424
148.5445,105.6982
148.5445,105.6982
148.4048,105.7997
148.3622,105.8550
148.3562,105.9246
148.3888,105.9864
148.4048,106.0003
148.5445,106.1018
148.5445,106.1018
148.7003,106.2576
148.7003,106.2576
148.8299,106.4360
148.9300,106.6324
148.9300,106.6324
148.9981,106.8420
149.0326,107.0598
149.0326,107.2802
148.9981,107.4980
148.9300,107.7076
148.9300,107.7076
148.8818,107.8022
148.8362,107.8917
148.8299,107.9040
148.7003,108.0824
148.7003,108.0824
148.5445,108.2382
148.5445,108.2382
148.4044,108.3400
148.3618,108.3953
148.3558,108.4649
148.3884,108.5267
148.4044,108.5406
148.5441,108.6421
148.5441,108.6421
148.7000,108.7980
148.8295,108.9762
148.9295,109.1726
148.9976,109.3822
148.9976,109.3822
149.0100,109.4600
147.6651,109.4600
147.6980,109.5170
147.7321,109.6442
147.7321,109.7758
147.6980,109.9030
147.6651,109.9600
149.0100,109.9600
148.9976,110.0378
148.9976,110.0378
148.9295,110.2474
148.8295,110.4438
148.7000,110.6220
148.5441,110.7779
148.5441,110.7779
148.4044,110.8794
148.3618,110.9347
148.3558,111.0043
148.3884,111.0661
148.4044,111.0800
148.5445,111.1818
148.7003,111.3376
148.7003,111.3376
148.8299,111.5160
148.9300,111.7124
148.9300,111.7124
148.9981,111.9220
149.0326,112.1398
149.0326,112.3602
148.9981,112.5780
148.9300,112.7876
148.9300,112.7876
148.9069,112.8329
148.8362,112.9717
148.8299,112.9840
148.7003,113.1624
148.7003,113.1624
148.5445,113.3182
148.5445,113.3182
148.3889,113.4313
148.3661,113.4478
148.2377,113.5132
148.1697,113.5479
148.1697,113.5479
148.0649,113.5820
147.9601,113.6160
147.7423,113.6505
147.7423,113.6505
146.7219,113.6505
146.7219,113.6505
146.5041,113.6160
146.2945,113.5479
146.0981,113.4478
145.9197,113.3182
145.7639,113.1624
145.6834,113.0516
145.6281,113.0089
145.5831,113.0005
125.1782,113.0005
125.0806,112.9811
125.0332,112.9717
124.8966,112.9151
124.8474,112.8822
124.7737,112.8330
124.6076,112.6668
124.5462,112.6333
124.5199,112.6305
123.7219,112.6305
123.7219,112.6305
123.5041,112.5960
123.2945,112.5279
123.0981,112.4278
122.9197,112.2982
122.7639,112.1424
122.6343,111.9640
122.5342,111.7676
122.4661,111.5580
122.4316,111.3402
122.4316,111.1198
122.4661,110.9020
122.5342,110.6924
122.5342,110.6924
122.5701,110.6220
122.6343,110.4960
122.6722,110.4438
122.7639,110.3176
122.7639,110.3176
122.9197,110.1618
122.9197,110.1618
123.0598,110.0600
123.1024,110.0047
123.1084,109.9351
123.0758,109.8733
123.0598,109.8594
122.9201,109.7579
122.9201,109.7579
122.7642,109.6020
122.6347,109.4238
122.5347,109.2274
122.4666,109.0178
122.4666,109.0178
122.4542,108.9400
123.7991,108.9400
123.7662,108.8830
123.7321,108.7558
123.7321,108.6242
123.7662,108.4970
123.7991,108.4400
122.4542,108.4400
122.4666,108.3622
122.4666,108.3622
122.5347,108.1526
122.6347,107.9562
122.7642,107.7780
122.9201,107.6221
123.0598,107.5206
123.1024,107.4653
123.1084,107.3957
123.0758,107.3339
123.0598,107.3200
122.9197,107.2182
122.7639,107.0624
122.6343,106.8840
122.5342,106.6876
122.4661,106.4780
122.4316,106.2602
122.4316,106.0398
122.4661,105.8220
122.5327,105.6171
122.5342,105.6124
122.5342,105.6124
122.5699,105.5424
122.6343,105.4160
122.6720,105.3640
122.7639,105.2376
122.7639,105.2376
122.9197,105.0818
122.9197,105.0818
123.0594,104.9803
123.1020,104.9250
123.1080,104.8554
123.0754,104.7936
123.0594,104.7797
122.9197,104.6782
122.9197,104.6782
122.9197,104.6782
122.7639,104.5224
122.6343,104.3440
122.5342,104.1476
122.4661,103.9380
122.4316,103.7202
122.4316,103.4998
122.4661,103.2820
122.5342,103.0724
122.5342,103.0724
122.5699,103.0024
122.6343,102.8760
122.6726,102.8232
122.7639,102.6976
122.7639,102.6976
122.9197,102.5418
122.9197,102.5418
123.0594,102.4403
123.1020,102.3850
123.1080,102.3154
123.0754,102.2536
123.0594,102.2397
122.9197,102.1382
122.9197,102.1382
122.9197,102.1382
122.7639,101.9824
122.6834,101.8716
122.6791,101.8683
122.6768,101.8633
122.6517,101.8472
122.6281,101.8289
122.6214,101.8277
122.6180,101.8255
122.5831,101.8205
122.3444,101.8205
Z" /> 
<path style="fill:#FFFFFF; fill-opacity:1.0000; stroke:none;fill-rule:evenodd;"
d="M 125.7778,106.9702
125.7445,107.0016
125.7003,107.0624
125.5445,107.2182
125.5445,107.2182
125.4044,107.3200
125.3618,107.3753
125.3558,107.4449
125.3884,107.5067
125.4044,107.5206
125.5441,107.6221
125.5441,107.6221
125.7000,107.7780
125.8295,107.9562
125.9295,108.1526
125.9976,108.3622
125.9976,108.3622
126.0100,108.4400
124.6651,108.4400
124.6980,108.4970
124.7321,108.6242
124.7321,108.7558
124.6980,108.8830
124.6651,108.9400
126.0100,108.9400
125.9976,109.0178
125.9976,109.0178
125.9295,109.2274
125.8295,109.4238
125.7000,109.6020
125.5441,109.7579
125.5441,109.7579
125.4044,109.8594
125.3618,109.9147
125.3558,109.9843
125.3884,110.0461
125.4044,110.0600
125.5445,110.1618
125.7003,110.3176
125.7003,110.3176
125.8299,110.4960
125.9300,110.6924
125.9300,110.6924
125.9981,110.9020
126.0326,111.1198
126.0326,111.3402
126.0301,111.3561
126.0390,111.4254
126.0840,111.4788
126.1508,111.4995
126.1526,111.4995
130.3277,111.4995
130.3947,111.4798
130.4405,111.4270
130.4517,111.3755
130.4517,109.3867
130.4517,109.3867
130.4663,109.2575
130.4768,109.2274
130.5236,109.0936
130.6160,108.9466
130.7388,108.8238
130.7799,108.7980
130.8858,108.7314
130.8858,108.7314
131.0497,108.6741
131.0497,108.6741
131.1789,108.6595
132.5255,108.6595
132.5255,108.6595
132.6547,108.6741
132.8186,108.7314
132.9656,108.8238
133.0884,108.9466
133.1808,109.0936
133.1808,109.0936
133.2381,109.2575
133.2381,109.2575
133.2527,109.3867
133.2527,109.3867
133.2527,111.3755
133.2724,111.4425
133.3252,111.4883
133.3767,111.4995
145.5831,111.4995
145.6501,111.4798
145.6834,111.4484
145.6876,111.4425
145.7053,111.4182
145.7639,111.3376
145.9197,111.1818
145.9197,111.1818
146.0598,111.0800
146.1024,111.0247
146.1084,110.9551
146.0758,110.8933
146.0598,110.8794
145.9201,110.7779
145.9201,110.7779
145.7642,110.6220
145.6347,110.4438
145.5347,110.2474
145.4666,110.0378
145.4666,110.0378
145.4542,109.9600
146.7991,109.9600
146.7662,109.9030
146.7321,109.7758
146.7321,109.6442
146.7662,109.5170
146.7991,109.4600
145.4542,109.4600
145.4666,109.3822
145.4666,109.3822
145.5347,109.1726
145.6347,108.9762
145.7642,108.7980
145.9201,108.6421
146.0598,108.5406
146.1024,108.4853
146.1084,108.4157
146.0758,108.3539
146.0598,108.3400
145.9197,108.2382
145.7639,108.0824
145.6834,107.9716
145.6281,107.9289
145.5831,107.9205
133.2983,107.9205
133.2007,107.9011
133.1533,107.8917
133.0167,107.8351
132.9675,107.8022
132.8938,107.7530
132.1277,106.9868
132.0663,106.9533
132.0400,106.9505
125.8448,106.9505
Z" /> 
<path style="fill:#FFFFFF; fill-opacity:1.0000; stroke:none;fill-rule:evenodd;"
d="M 117.2752,67.1497
117.2082,67.1695
117.1625,67.2225
117.1515,67.2730
116.8229,122.4964
116.8422,122.5636
116.8948,122.6096
116.9458,122.6211
198.1119,123.3688
198.1791,123.3498
198.2254,123.2974
198.2371,123.2447
198.2364,122.6211
198.2280,114.7739
151.9027,114.7739
151.8739,114.9189
151.8739,114.9189
151.8173,115.0555
151.7844,115.1047
151.7844,115.1047
151.7352,115.1784
151.7351,115.1784
151.0352,115.8784
151.0352,115.8784
150.9306,115.9829
150.9306,115.9830
150.8077,116.0651
150.8077,116.0651
150.6711,116.1217
150.6711,116.1217
150.6711,116.1217
150.6711,116.1217
150.5261,116.1505
150.5261,116.1505
123.8783,116.1505
123.7807,116.1311
123.7333,116.1217
123.5967,116.0651
123.5475,116.0322
123.4738,115.9830
119.6192,112.1284
119.5542,112.0311
119.5371,112.0055
119.4805,111.8689
119.4604,111.7676
119.4517,111.7239
119.4517,102.7761
119.4805,102.6311
119.4805,102.6311
119.4805,102.6311
119.5175,102.5418
119.5371,102.4945
119.5371,102.4945
119.6192,102.3716
119.6508,102.3400
119.7238,102.2670
121.5038,100.4870
121.5038,100.4870
121.5038,100.4870
121.5530,100.4541
121.5858,100.4322
121.6267,100.4049
121.6267,100.4049
121.6267,100.4049
121.6267,100.4049
121.7633,100.3483
121.7633,100.3483
121.9083,100.3195
121.9083,100.3195
122.5831,100.3195
122.6501,100.2998
122.6834,100.2684
122.7639,100.1576
122.9197,100.0018
122.9197,100.0018
123.0594,99.9003
123.1020,99.8450
123.1080,99.7754
123.0754,99.7136
123.0594,99.6997
122.9197,99.5982
122.9197,99.5982
122.9197,99.5982
122.7639,99.4424
122.6834,99.3316
122.6281,99.2889
122.5831,99.2805
121.1083,99.2805
121.0107,99.2611
120.9633,99.2517
120.8267,99.1951
120.7775,99.1622
120.7038,99.1130
118.3192,96.7284
118.2883,96.6820
118.2520,96.6278
118.2435,96.6150
118.2371,96.6055
118.1805,96.4689
118.1517,96.3239
118.1517,87.5261
118.1517,87.5261
118.1805,87.3811
118.1805,87.3811
118.1805,87.3811
118.2134,87.3018
118.2371,87.2445
118.2371,87.2445
118.3192,87.1216
118.3655,87.0754
118.4238,87.0170
122.4389,83.0019
122.4692,82.9525
122.5342,82.7524
122.5342,82.7524
122.5699,82.6824
122.6343,82.5560
122.6726,82.5032
122.7639,82.3776
122.7639,82.3776
122.9197,82.2218
122.9197,82.2218
123.0594,82.1203
123.1020,82.0650
123.1080,81.9954
123.0754,81.9336
123.0594,81.9197
122.9197,81.8182
122.9197,81.8182
122.9197,81.8182
122.7639,81.6624
122.6343,81.4840
122.5342,81.2876
122.4661,81.0780
122.4316,80.8602
122.4316,80.6398
122.4661,80.4220
122.5342,80.2124
122.5342,80.2124
122.5699,80.1424
122.6343,80.0160
122.6726,79.9632
122.7639,79.8376
122.7639,79.8376
122.9197,79.6818
122.9197,79.6818
123.0594,79.5803
123.1020,79.5250
123.1080,79.4554
123.0754,79.3936
123.0594,79.3797
122.9197,79.2782
122.9197,79.2782
122.9197,79.2782
122.7639,79.1224
122.6343,78.9440
122.5342,78.7476
122.4661,78.5380
122.4316,78.3202
122.4316,78.0998
122.4661,77.8820
122.5342,77.6724
122.5342,77.6724
122.5699,77.6024
122.6343,77.4760
122.6720,77.4240
122.7639,77.2976
122.7639,77.2976
122.9197,77.1418
122.9197,77.1418
123.0981,77.0122
123.0981,77.0122
123.0981,77.0122
123.1610,76.9801
123.2945,76.9121
123.2945,76.9121
123.5041,76.8440
123.6130,76.8267
123.7219,76.8095
124.7423,76.8095
124.8149,76.8210
124.9601,76.8440
125.1697,76.9121
125.1697,76.9121
125.3661,77.0122
125.5445,77.1418
125.5445,77.1418
125.7003,77.2976
125.7003,77.2976
125.8299,77.4760
125.9300,77.6724
125.9300,77.6724
125.9981,77.8820
126.0326,78.0998
126.0326,78.3202
125.9981,78.5380
125.9300,78.7476
125.9300,78.7476
125.8620,78.8811
125.8513,78.9020
125.8299,78.9440
125.7003,79.1224
125.7003,79.1224
125.5445,79.2782
125.5445,79.2782
125.4048,79.3797
125.3622,79.4350
125.3562,79.5046
125.3888,79.5664
125.4048,79.5803
125.5445,79.6818
125.5445,79.6818
125.7003,79.8376
125.7808,79.9484
125.8361,79.9911
125.8811,79.9995
128.7900,79.9995
128.8570,79.9798
128.8777,79.9632
135.0238,73.8171
135.0238,73.8170
135.0975,73.7678
135.0975,73.7678
135.1467,73.7349
135.2833,73.6783
135.2833,73.6783
135.4283,73.6495
135.4283,73.6495
149.0261,73.6495
149.0261,73.6495
149.1711,73.6783
149.1711,73.6783
149.3077,73.7349
149.4306,73.8170
149.4306,73.8170
151.3851,75.7716
151.3852,75.7716
151.4344,75.8453
151.4344,75.8453
151.4673,75.8945
151.4673,75.8945
151.5239,76.0311
151.5239,76.0311
151.5527,76.1761
151.5527,76.1761
151.5527,88.5739
151.5527,88.5739
151.5527,88.5739
151.5239,88.7189
151.5239,88.7189
151.4673,88.8555
151.4673,88.8555
151.4579,88.8695
151.3852,88.9784
151.3851,88.9784
150.3906,89.9730
150.3906,89.9730
150.3660,89.9894
150.3537,89.9976
150.2677,90.0551
150.2677,90.0551
150.2677,90.0551
150.1390,90.1084
150.1311,90.1117
150.1311,90.1117
150.1311,90.1117
149.9861,90.1405
149.9861,90.1405
149.9861,90.1405
149.8383,90.1405
148.8811,90.1405
148.8141,90.1602
148.7808,90.1916
148.7762,90.1980
148.7003,90.3024
148.5445,90.4582
148.5445,90.4582
148.4048,90.5597
148.3622,90.6150
148.3562,90.6846
148.3888,90.7464
148.4048,90.7603
148.5445,90.8618
148.5445,90.8618
148.7003,91.0176
148.7003,91.0176
148.8299,91.1960
148.9300,91.3924
148.9300,91.3924
148.9981,91.6020
149.0326,91.8198
149.0326,92.0402
148.9981,92.2580
148.9300,92.4676
148.9300,92.4676
148.8299,92.6640
148.7003,92.8424
148.7003,92.8424
148.5445,92.9982
148.5445,92.9982
148.4048,93.0997
148.3622,93.1550
148.3562,93.2246
148.3888,93.2864
148.4048,93.3003
148.5445,93.4018
148.5445,93.4018
148.7003,93.5576
148.7003,93.5576
148.8299,93.7360
148.9300,93.9324
148.9300,93.9324
148.9981,94.1420
149.0326,94.3598
149.0326,94.5802
148.9981,94.7980
148.9300,95.0076
148.9300,95.0076
148.8743,95.1168
148.8303,95.2032
148.8299,95.2040
148.7003,95.3824
148.7003,95.3824
148.5445,95.5382
148.5445,95.5382
148.4048,95.6397
148.3622,95.6950
148.3562,95.7646
148.3888,95.8264
148.4048,95.8403
148.5445,95.9418
148.5445,95.9418
148.7003,96.0976
148.7003,96.0976
148.8299,96.2760
148.9300,96.4724
148.9300,96.4724
148.9981,96.6820
149.0326,96.8998
149.0326,97.1202
148.9981,97.3380
148.9300,97.5476
148.9300,97.5476
148.8943,97.6176
148.8303,97.7432
148.8299,97.7440
148.7003,97.9224
148.7003,97.9224
148.5445,98.0782
148.5445,98.0782
148.4048,98.1797
148.3622,98.2350
148.3562,98.3046
148.3888,98.3664
148.4048,98.3803
148.5445,98.4818
148.5445,98.4818
148.7003,98.6376
148.7003,98.6376
148.8299,98.8160
148.9300,99.0124
148.9300,99.0124
148.9981,99.2220
149.0326,99.4398
149.0326,99.6602
148.9981,99.8780
148.9300,100.0876
148.9300,100.0876
148.8299,100.2840
148.7003,100.4624
148.7003,100.4624
148.5445,100.6182
148.5445,100.6182
148.4048,100.7197
148.3622,100.7750
148.3562,100.8446
148.3888,100.9064
148.4048,100.9203
148.5445,101.0218
148.5445,101.0218
148.7003,101.1776
148.7003,101.1776
148.8299,101.3560
148.9300,101.5524
148.9300,101.5524
148.9981,101.7620
149.0326,101.9798
149.0326,102.2002
148.9981,102.4180
148.9300,102.6276
148.9300,102.6276
148.8943,102.6976
148.8303,102.8232
148.8299,102.8240
148.7003,103.0024
148.7003,103.0024
148.5445,103.1582
148.5445,103.1582
148.4048,103.2597
148.3622,103.3150
148.3562,103.3846
148.3888,103.4464
148.4048,103.4603
148.5445,103.5618
148.5445,103.5618
148.7003,103.7176
148.7808,103.8284
148.8361,103.8711
148.8811,103.8795
149.2061,103.8795
149.3511,103.9083
149.3511,103.9083
149.4877,103.9649
149.4877,103.9649
149.6106,104.0470
149.6106,104.0471
151.7351,106.1716
151.7352,106.1716
151.7701,106.2239
151.7701,106.2239
151.8173,106.2945
151.8739,106.4311
151.8739,106.4311
151.9027,106.5761
151.9027,106.5761
151.9027,114.7739
151.9027,114.7739
151.9027,114.7739
198.2280,114.7739
198.2259,112.8329
198.2251,112.1348
198.2196,107.0016
198.1870,76.5798
173.8027,76.5798
173.8027,76.8002
173.7958,76.8440
173.7682,77.0180
173.7001,77.2276
173.7001,77.2276
173.6000,77.4240
173.4704,77.6024
173.4704,77.6024
173.3146,77.7582
173.3146,77.7582
173.1749,77.8597
173.1323,77.9150
173.1263,77.9846
173.1589,78.0464
173.1749,78.0603
173.3146,78.1618
173.3146,78.1618
173.4704,78.3176
173.4704,78.3176
173.6000,78.4960
173.7001,78.6924
173.7001,78.6924
173.7682,78.9020
173.8027,79.1198
173.8027,79.3402
173.7682,79.5580
173.7001,79.7676
173.7001,79.7676
173.6644,79.8376
173.6004,79.9632
173.6000,79.9640
173.4704,80.1424
173.4704,80.1424
173.3146,80.2982
173.3146,80.2982
173.1749,80.3997
173.1323,80.4550
173.1263,80.5246
173.1589,80.5864
173.1749,80.6003
173.3146,80.7018
173.3146,80.7018
173.4704,80.8576
173.4704,80.8576
173.6000,81.0360
173.7001,81.2324
173.7001,81.2324
173.7682,81.4420
173.8027,81.6598
173.8027,81.8802
173.7682,82.0980
173.7001,82.3076
173.7001,82.3076
173.6644,82.3776
173.6004,82.5032
173.6000,82.5040
173.4704,82.6824
173.4704,82.6824
173.3146,82.8382
173.3146,82.8382
173.1749,82.9397
173.1323,82.9950
173.1263,83.0646
173.1589,83.1264
173.1749,83.1403
173.3146,83.2418
173.3146,83.2418
173.4704,83.3976
173.4704,83.3976
173.6000,83.5760
173.7001,83.7724
173.7001,83.7724
173.7682,83.9820
173.8027,84.1998
173.8027,84.4202
173.7682,84.6380
173.7001,84.8476
173.7001,84.8476
173.6000,85.0440
173.4704,85.2224
173.4704,85.2224
173.3146,85.3782
173.3146,85.3782
173.1749,85.4797
173.1323,85.5350
173.1263,85.6046
173.1589,85.6664
173.1749,85.6803
173.3146,85.7818
173.3146,85.7818
173.4704,85.9376
173.4704,85.9376
173.6000,86.1160
173.7001,86.3124
173.7001,86.3124
173.7682,86.5220
173.8027,86.7398
173.8027,86.9602
173.7682,87.1780
173.7001,87.3876
173.7001,87.3876
173.6644,87.4576
173.6063,87.5717
173.6000,87.5840
173.4704,87.7624
173.4704,87.7624
173.3146,87.9182
173.3146,87.9182
173.1749,88.0197
173.1323,88.0750
173.1263,88.1446
173.1589,88.2064
173.1749,88.2203
173.3146,88.3218
173.3146,88.3218
173.4704,88.4776
173.4704,88.4776
173.6000,88.6560
173.7001,88.8524
173.7001,88.8524
173.7682,89.0620
173.7799,89.1360
173.8027,89.2798
173.8027,89.5002
173.7867,89.6011
173.7682,89.7180
173.7001,89.9276
173.7001,89.9276
173.6351,90.0551
173.6063,90.1117
173.6000,90.1240
173.4704,90.3024
173.4704,90.3024
173.3146,90.4582
173.3146,90.4582
173.1749,90.5597
173.1323,90.6150
173.1263,90.6846
173.1589,90.7464
173.1749,90.7603
173.3146,90.8618
173.3146,90.8618
173.4704,91.0176
173.4704,91.0176
173.6000,91.1960
173.7001,91.3924
173.7001,91.3924
173.7682,91.6020
173.8027,91.8198
173.8027,92.0402
173.7682,92.2580
173.7001,92.4676
173.7001,92.4676
173.6000,92.6640
173.4704,92.8424
173.4704,92.8424
173.3146,92.9982
173.3146,92.9982
173.1749,93.0997
173.1323,93.1550
173.1263,93.2246
173.1589,93.2864
173.1749,93.3003
173.3146,93.4018
173.3146,93.4018
173.4704,93.5576
173.4704,93.5576
173.6000,93.7360
173.7001,93.9324
173.7001,93.9324
173.7682,94.1420
173.8027,94.3598
173.8027,94.5802
173.7682,94.7980
173.7001,95.0076
173.7001,95.0076
173.6444,95.1168
173.6004,95.2032
173.6000,95.2040
173.4704,95.3824
173.4704,95.3824
173.3146,95.5382
173.3146,95.5382
173.1749,95.6397
173.1323,95.6950
173.1263,95.7646
173.1589,95.8264
173.1749,95.8403
173.3146,95.9418
173.3146,95.9418
173.4704,96.0976
173.4704,96.0976
173.6000,96.2760
173.7001,96.4724
173.7001,96.4724
173.7682,96.6820
173.8027,96.8998
173.8027,97.1202
173.7682,97.3380
173.7001,97.5476
173.7001,97.5476
173.6644,97.6176
173.6004,97.7432
173.6000,97.7440
173.4704,97.9224
173.4704,97.9224
173.3146,98.0782
173.3146,98.0782
173.1749,98.1797
173.1323,98.2350
173.1263,98.3046
173.1589,98.3664
173.1749,98.3803
173.3146,98.4818
173.3146,98.4818
173.4704,98.6376
173.4704,98.6376
173.6000,98.8160
173.7001,99.0124
173.7001,99.0124
173.7682,99.2220
173.8027,99.4398
173.8027,99.6602
173.7682,99.8780
173.7001,100.0876
173.7001,100.0876
173.6000,100.2840
173.4704,100.4624
173.4704,100.4624
173.3146,100.6182
173.3146,100.6182
173.1749,100.7197
173.1323,100.7750
173.1263,100.8446
173.1589,100.9064
173.1749,100.9203
173.3146,101.0218
173.3146,101.0218
173.4704,101.1776
173.4704,101.1776
173.6000,101.3560
173.7001,101.5524
173.7001,101.5524
173.7682,101.7620
173.8027,101.9798
173.8027,102.2002
173.7682,102.4180
173.7001,102.6276
173.7001,102.6276
173.6644,102.6976
173.6004,102.8232
173.6000,102.8240
173.4704,103.0024
173.4704,103.0024
173.3146,103.1582
173.3146,103.1582
173.1749,103.2597
173.1323,103.3150
173.1263,103.3846
173.1589,103.4464
173.1749,103.4603
173.3146,103.5618
173.3146,103.5618
173.4704,103.7176
173.4704,103.7176
173.6000,103.8960
173.7001,104.0924
173.7001,104.0924
173.7682,104.3020
173.8027,104.5198
173.8027,104.7402
173.7682,104.9580
173.7001,105.1676
173.7001,105.1676
173.6000,105.3640
173.4704,105.5424
173.4704,105.5424
173.3146,105.6982
173.3146,105.6982
173.1749,105.7997
173.1323,105.8550
173.1263,105.9246
173.1589,105.9864
173.1749,106.0003
173.3146,106.1018
173.3146,106.1018
173.4704,106.2576
173.4704,106.2576
173.6000,106.4360
173.7001,106.6324
173.7001,106.6324
173.7682,106.8420
173.8027,107.0598
173.8027,107.2802
173.7682,107.4980
173.7001,107.7076
173.7001,107.7076
173.6519,107.8022
173.6063,107.8917
173.6000,107.9040
173.4704,108.0824
173.4704,108.0824
173.3146,108.2382
173.3146,108.2382
173.1745,108.3400
173.1319,108.3953
173.1259,108.4649
173.1585,108.5267
173.1745,108.5406
173.3142,108.6421
173.3142,108.6421
173.4701,108.7980
173.5996,108.9762
173.6996,109.1726
173.7677,109.3822
173.7677,109.3822
173.7801,109.4600
172.4352,109.4600
172.4681,109.5170
172.5022,109.6442
172.5022,109.7758
172.4681,109.9030
172.4352,109.9600
173.7801,109.9600
173.7677,110.0378
173.7677,110.0378
173.6996,110.2474
173.5996,110.4438
173.4701,110.6220
173.3142,110.7779
173.3142,110.7779
173.1745,110.8794
173.1319,110.9347
173.1259,111.0043
173.1585,111.0661
173.1745,111.0800
173.3146,111.1818
173.4704,111.3376
173.4704,111.3376
173.6000,111.5160
173.7001,111.7124
173.7001,111.7124
173.7682,111.9220
173.8027,112.1398
173.8027,112.3602
173.7682,112.5780
173.7001,112.7876
173.7001,112.7876
173.6770,112.8329
173.6063,112.9717
173.6000,112.9840
173.4704,113.1624
173.4704,113.1624
173.3146,113.3182
173.3146,113.3182
173.1590,113.4313
173.1362,113.4478
173.0078,113.5132
172.9398,113.5479
172.9398,113.5479
172.8350,113.5820
172.7302,113.6160
172.5124,113.6505
172.5124,113.6505
171.4920,113.6505
171.4920,113.6505
171.2742,113.6160
171.0646,113.5479
170.8682,113.4478
170.6898,113.3182
170.5340,113.1624
170.4044,112.9840
170.3043,112.7876
170.2362,112.5780
170.2017,112.3602
170.2017,112.1398
170.2362,111.9220
170.3006,111.7239
170.3043,111.7124
170.3043,111.7124
170.3390,111.6444
170.4044,111.5160
170.4314,111.4788
170.5340,111.3376
170.5340,111.3376
170.6898,111.1818
170.6898,111.1818
170.8299,111.0800
170.8725,111.0247
170.8785,110.9551
170.8459,110.8933
170.8299,110.8794
170.6902,110.7779
170.6902,110.7779
170.5343,110.6220
170.4048,110.4438
170.3048,110.2474
170.2367,110.0378
170.2367,110.0378
170.2243,109.9600
171.5692,109.9600
171.5363,109.9030
171.5022,109.7758
171.5022,109.6442
171.5363,109.5170
171.5692,109.4600
170.2243,109.4600
170.2367,109.3822
170.2367,109.3822
170.3048,109.1726
170.4048,108.9762
170.5343,108.7980
170.6902,108.6421
170.8299,108.5406
170.8725,108.4853
170.8785,108.4157
170.8459,108.3539
170.8299,108.3400
170.6898,108.2382
170.5340,108.0824
170.4044,107.9040
170.3043,107.7076
170.2362,107.4980
170.2017,107.2802
170.2017,107.0598
170.2362,106.8420
170.3043,106.6324
170.4044,106.4360
170.4427,106.3832
170.5340,106.2576
170.5340,106.2576
170.6898,106.1018
170.6898,106.1018
170.8295,106.0003
170.8721,105.9450
170.8781,105.8754
170.8455,105.8136
170.8295,105.7997
170.6898,105.6982
170.6898,105.6982
170.6898,105.6982
170.5340,105.5424
170.4044,105.3640
170.3043,105.1676
170.2362,104.9580
170.2017,104.7402
170.2017,104.5198
170.2362,104.3020
170.3043,104.0924
170.3043,104.0924
170.3390,104.0244
170.4044,103.8960
170.4225,103.8711
170.5340,103.7176
170.5340,103.7176
170.6898,103.5618
170.6898,103.5618
170.8295,103.4603
170.8721,103.4050
170.8781,103.3354
170.8455,103.2736
170.8295,103.2597
170.6898,103.1582
170.6898,103.1582
170.6898,103.1582
170.5340,103.0024
170.4044,102.8240
170.3043,102.6276
170.2362,102.4180
170.2017,102.2002
170.2017,101.9798
170.2362,101.7620
170.3043,101.5524
170.3043,101.5524
170.3693,101.4249
170.4044,101.3560
170.4307,101.3198
170.5340,101.1776
170.5340,101.1776
170.6898,101.0218
170.6898,101.0218
170.8295,100.9203
170.8721,100.8650
170.8781,100.7954
170.8455,100.7336
170.8295,100.7197
170.6898,100.6182
170.6898,100.6182
170.6898,100.6182
170.5340,100.4624
170.4044,100.2840
170.3043,100.0876
170.2362,99.8780
170.2017,99.6602
170.2017,99.4398
170.2362,99.2220
170.2767,99.0975
170.3043,99.0124
170.3043,99.0124
170.3445,98.9336
170.4044,98.8160
170.4258,98.7866
170.5340,98.6376
170.5340,98.6376
170.6898,98.4818
170.6898,98.4818
170.8295,98.3803
170.8721,98.3250
170.8781,98.2554
170.8455,98.1936
170.8295,98.1797
170.6898,98.0782
170.6898,98.0782
170.6898,98.0782
170.5340,97.9224
170.4044,97.7440
170.3043,97.5476
170.2362,97.3380
170.2017,97.1202
170.2017,96.8998
170.2362,96.6820
170.3043,96.4724
170.3043,96.4724
170.3390,96.4044
170.4044,96.2760
170.5321,96.1002
170.5340,96.0976
170.5340,96.0976
170.6898,95.9418
170.6898,95.9418
170.8295,95.8403
170.8721,95.7850
170.8781,95.7154
170.8455,95.6536
170.8295,95.6397
170.6898,95.5382
170.6898,95.5382
170.6898,95.5382
170.5340,95.3824
170.4044,95.2040
170.3043,95.0076
170.2362,94.7980
170.2017,94.5802
170.2017,94.3598
170.2362,94.1420
170.2702,94.0372
170.3043,93.9324
170.3043,93.9324
170.3390,93.8644
170.4044,93.7360
170.4560,93.6649
170.5340,93.5576
170.5340,93.5576
170.6898,93.4018
170.6898,93.4018
170.8295,93.3003
170.8721,93.2450
170.8781,93.1754
170.8455,93.1136
170.8295,93.0997
170.6898,92.9982
170.6898,92.9982
170.6898,92.9982
170.5340,92.8424
170.4044,92.6640
170.3043,92.4676
170.2362,92.2580
170.2017,92.0402
170.2017,91.8198
170.2362,91.6020
170.3043,91.3924
170.3043,91.3924
170.3564,91.2902
170.4044,91.1960
170.4307,91.1598
170.5340,91.0176
170.5340,91.0176
170.6898,90.8618
170.6898,90.8618
170.8295,90.7603
170.8721,90.7050
170.8781,90.6354
170.8455,90.5736
170.8295,90.5597
170.6898,90.4582
170.6898,90.4582
170.6898,90.4582
170.5340,90.3024
170.4044,90.1240
170.3043,89.9276
170.2362,89.7180
170.2017,89.5002
170.2017,89.2798
170.2362,89.0620
170.2864,88.9076
170.3043,88.8524
170.3043,88.8524
170.3444,88.7738
170.4044,88.6560
170.4467,88.5977
170.5340,88.4776
170.5340,88.4776
170.6898,88.3218
170.6898,88.3218
170.8295,88.2203
170.8721,88.1650
170.8781,88.0954
170.8455,88.0336
170.8295,88.0197
170.6898,87.9182
170.6898,87.9182
170.6898,87.9182
170.5340,87.7624
170.4044,87.5840
170.3043,87.3876
170.2362,87.1780
170.2017,86.9602
170.2017,86.7398
170.2362,86.5220
170.3043,86.3124
170.3043,86.3124
170.3390,86.2444
170.4044,86.1160
170.4427,86.0632
170.5340,85.9376
170.5340,85.9376
170.6898,85.7818
170.6898,85.7818
170.8295,85.6803
170.8721,85.6250
170.8781,85.5554
170.8455,85.4936
170.8295,85.4797
170.6898,85.3782
170.6898,85.3782
170.6898,85.3782
170.5340,85.2224
170.4044,85.0440
170.3043,84.8476
170.2362,84.6380
170.2017,84.4202
170.2017,84.1998
170.2362,83.9820
170.3043,83.7724
170.3043,83.7724
170.3390,83.7044
170.4044,83.5760
170.4209,83.5532
170.5340,83.3976
170.5340,83.3976
170.6898,83.2418
170.6898,83.2418
170.8295,83.1403
170.8721,83.0850
170.8781,83.0154
170.8455,82.9536
170.8295,82.9397
170.6898,82.8382
170.6898,82.8382
170.6898,82.8382
170.5340,82.6824
170.4044,82.5040
170.3043,82.3076
170.2362,82.0980
170.2017,81.8802
170.2017,81.6598
170.2362,81.4420
170.3043,81.2324
170.3043,81.2324
170.3390,81.1644
170.4044,81.0360
170.5321,80.8602
170.5340,80.8576
170.5340,80.8576
170.6898,80.7018
170.6898,80.7018
170.8295,80.6003
170.8721,80.5450
170.8781,80.4754
170.8455,80.4136
170.8295,80.3997
170.6898,80.2982
170.6898,80.2982
170.6898,80.2982
170.5340,80.1424
170.4044,79.9640
170.3043,79.7676
170.2362,79.5580
170.2017,79.3402
170.2017,79.1198
170.2362,78.9020
170.3043,78.6924
170.3043,78.6924
170.3390,78.6244
170.4044,78.4960
170.5321,78.3202
170.5340,78.3176
170.5340,78.3176
170.6898,78.1618
170.6898,78.1618
170.8295,78.0603
170.8721,78.0050
170.8781,77.9354
170.8455,77.8736
170.8295,77.8597
170.6898,77.7582
170.6898,77.7582
170.6898,77.7582
170.5340,77.6024
170.4044,77.4240
170.3043,77.2276
170.2362,77.0180
170.2017,76.8002
170.2017,76.5798
170.2362,76.3620
170.3043,76.1524
170.3043,76.1524
170.3553,76.0522
170.4044,75.9560
170.4491,75.8945
170.5340,75.7776
170.5340,75.7776
170.6898,75.6218
170.6898,75.6218
170.8682,75.4922
170.8682,75.4922
170.8682,75.4922
170.9311,75.4601
171.0646,75.3921
171.0646,75.3921
171.2742,75.3240
171.4753,75.2921
171.4920,75.2895
172.5124,75.2895
172.5291,75.2921
172.7302,75.3240
172.9398,75.3921
172.9398,75.3921
173.1362,75.4922
173.3146,75.6218
173.3146,75.6218
173.4704,75.7776
173.4704,75.7776
173.6000,75.9560
173.7001,76.1524
173.7001,76.1524
173.7682,76.3620
173.7682,76.3620
173.8027,76.5798
198.1870,76.5798
198.1773,67.5713
198.1576,67.5042
198.1047,67.4585
198.0560,67.4474
177.0536,67.0000
177.0508,67.0000
Z" /> 
</g> 
</svg>
